<svg xmlns="http://www.w3.org/2000/svg" width="162" height="147" viewBox="0 0 162 147">
						  <g id="logo_copy" data-name="logo copy" transform="translate(-374 -6036)">
						    <g id="logo">
						      <g id="Vector_Smart_Object" data-name="Vector Smart Object" transform="translate(330.09 5938.111)">
						        <rect id="Rectangle_1" data-name="Rectangle 1" width="145.81" height="147" transform="translate(43.91 97.889)" fill="#fff"></rect>
						        <g id="Group_2" data-name="Group 2">
						          <path id="Path_2" data-name="Path 2" d="M64.064,160.3c.156,17.873,18.118,20.145,24.422,20.145,12.364,0,25.66-4.7,25.66-19.285,0-10.267-7.778-13.953-15.631-16.149s-15.786-3.053-16.1-7.052c0-3.138,3.808-3.765,6.144-3.765a8.8,8.8,0,0,1,5.053,1.41,4.3,4.3,0,0,1,2.024,4.47h16.174c-.468-13.645-11.126-18.268-23.176-18.268-11.429,0-22.392,5.567-22.392,18.5,0,11.283,10.03,13.717,18.815,16.227,9.567,2.746,11.974,3.527,11.974,6.43,0,4.153-4.28,5.1-7.077,5.1-3.185,0-6.917-.709-8.162-4.077a10.454,10.454,0,0,1-.626-3.686Z" fill="#040506"></path>
						        </g>
						        <path id="Path_3" data-name="Path 3" d="M169.562,179.121l-20.218-55.98H132.627l-20.456,55.98h17.187l2.49-8H149.5l2.329,8Z" fill="#040506"></path>
						        <rect id="Rectangle_2" data-name="Rectangle 2" width="140.658" height="40.516" transform="translate(46.484 201.777)" fill="#040506"></rect>
						        <g id="Group_3" data-name="Group 3">
						          <path id="Path_4" data-name="Path 4" d="M151.833,179.12l-2.334-8H131.846l-2.483,8H112.174l20.447-55.978h16.722l20.218,55.978Zm-63.351,1.336c-6.3,0-24.26-2.276-24.416-20.151H81.172a10.377,10.377,0,0,0,.626,3.684c1.238,3.37,4.975,4.079,8.16,4.079,2.8,0,7.077-.945,7.077-5.094,0-2.907-2.405-3.686-11.974-6.434-8.785-2.508-18.815-4.935-18.815-16.225,0-12.934,10.959-18.5,22.394-18.5,12.05,0,22.708,4.627,23.169,18.265H95.634a4.286,4.286,0,0,0-2.022-4.467,8.825,8.825,0,0,0-5.051-1.412c-2.332,0-6.142.626-6.142,3.765.312,4,8.242,4.858,16.1,7.056s15.631,5.878,15.631,16.149c0,14.581-13.3,19.289-25.665,19.289m-42,21.326H187.142V100.488H46.484Z" fill="#ffc600"></path>
						        </g>
						        <path id="Path_5" data-name="Path 5" d="M147.791,133.728l-18.33,16.4,11,.727-9.333,15.454,21.656-20.154-11.327-.336Z" fill="#fff"></path>
						        <path id="Path_6" data-name="Path 6" d="M68.328,209.106H85.946V211.2H70.757v9.293H84.985v2.089H70.757V232.74H86.126v2.091h-17.8Z" fill="#fff"></path>
						        <g id="Group_4" data-name="Group 4">
						          <path id="Path_7" data-name="Path 7" d="M106.526,230.762l-3.717-2.85-1.254,1.552,3.36,2.56a8.546,8.546,0,0,1-4.717,1.259c-6.752,0-9.61-5.694-9.61-11.316s2.858-11.31,9.61-11.31c6.718,0,9.584,5.692,9.584,11.31a12.139,12.139,0,0,1-3.256,8.8m5.681-8.8c0-7.024-4.005-13.4-12.009-13.4-8.038,0-12.043,6.379-12.043,13.4s4.005,13.407,12.043,13.407a11.3,11.3,0,0,0,6.612-1.912l3.964,3.027,1.219-1.515-3.646-2.809a14.06,14.06,0,0,0,3.86-10.2" fill="#fff"></path>
						          <path id="Path_8" data-name="Path 8" d="M115.738,209.105h2.425v15.926c-.028,5.982,2.788,8.25,7.477,8.25,4.718,0,7.536-2.268,7.5-8.25V209.105h2.431v16.465c0,5.3-2.83,9.8-9.935,9.8-7.077,0-9.9-4.5-9.9-9.8Z" fill="#fff"></path>
						        </g>
						        <rect id="Rectangle_3" data-name="Rectangle 3" width="2.438" height="25.725" transform="translate(140.636 209.106)" fill="#fff"></rect>
						        <g id="Group_5" data-name="Group 5">
						          <path id="Path_9" data-name="Path 9" d="M159.184,221.714h-8.365v-10.52h8.365c3.36,0,5.681,1.729,5.681,5.262s-2.321,5.258-5.681,5.258m.537-12.609H148.395v25.726h2.424V223.807h8.9c4.577,0,7.575-2.7,7.575-7.351s-3-7.351-7.575-7.351" fill="#fff"></path>
						        </g>
						      </g>
						    </g>
						  </g>
						</svg>